<?xml version="1.0" encoding="UTF-8" standalone="no"?>
<!-- Created with Inkscape (http://www.inkscape.org/) -->

<svg
   width="512.00031"
   height="512"
   viewBox="0 0 135.46674 135.46667"
   version="1.1"
   id="svg5"
   xmlns="http://www.w3.org/2000/svg"
   xmlns:svg="http://www.w3.org/2000/svg">
  <defs
     id="defs2" />
  <g
     id="layer1"
     transform="translate(-678.56317,888.15288)">
    <path
       fill="#901a2d"
       d="m 746.20224,-884.44934 c -5.94152,0 -10.78826,4.8472 -10.78826,10.78836 0,5.94116 4.84674,10.7879 10.78826,10.78779 5.94152,0 10.78774,-4.84663 10.78774,-10.78779 0,-5.94116 -4.84622,-10.78836 -10.78774,-10.78836 z m 0,2.80131 c 4.42789,0 7.987,3.55937 7.987,7.98705 0,4.42779 -3.55911,7.98716 -7.987,7.98716 -4.42789,0 -7.98907,-3.55937 -7.98907,-7.98716 0,-4.42774 3.56118,-7.98705 7.98907,-7.98705 z m 5.17693,19.95682 c -1.50326,-0.0415 -2.72402,0.70052 -3.84576,1.32568 -0.7423,0.41417 -0.9481,0.57912 -1.33324,0.83897 -0.38359,-0.2597 -0.5925,-0.4235 -1.33739,-0.8368 -1.1995,-0.66615 -2.51097,-1.46786 -4.15886,-1.30058 a 1.4002351,1.4002351 0 0 0 -0.003,0 c -12.39312,1.28234 -22.77861,6.51577 -32.47208,15.39893 a 1.4002351,1.4002351 0 0 0 -0.0985,0.0938 c -0.003,0.003 -0.005,0.005 -0.005,0.005 a 1.4002351,1.4002351 0 0 0 -0.0622,0.0632 c -1.38249,1.45283 -2.23365,3.42916 -2.23365,5.58671 0,4.45992 3.64516,8.10472 8.10519,8.10472 2.05947,0 3.95618,-0.77569 5.38635,-2.04823 a 1.4004062,1.4004062 0 0 0 0,-0.0207 1.4003273,1.4003273 0 0 0 0.0518,-0.0415 c 3.32896,-3.40095 7.20686,-6.08941 11.59173,-8.00349 l -3.78771,8.59744 a 1.4002348,1.4002348 0 0 0 -0.0518,1.66753 1.4002348,1.4002348 0 0 0 1.52504,0.59737 h 35.39929 a 1.4002348,1.4002348 0 0 0 0.0518,-4.7e-4 1.4003202,1.4003202 0 0 0 0,-6.7e-4 1.4002348,1.4002348 0 0 0 1.08442,-2.2576 l -3.77734,-8.57229 c 4.2361,1.85182 8.25915,4.39975 11.37764,7.48611 a 1.4003273,1.4003273 0 0 0 0,0.0155 c 1.47009,1.50093 3.53164,2.43327 5.79224,2.43327 4.46003,0 8.10467,-3.64532 8.10467,-8.10525 0,-2.20243 -0.88848,-4.21328 -2.32177,-5.6742 a 1.400309,1.400309 0 0 0 -0.0622,-0.0632 c -8.23323,-8.08549 -20.31378,-14.07533 -32.65765,-15.26923 h -0.005 c -0.10367,-0.005 -0.20216,-0.0156 -0.30583,-0.0207 z m 0.0518,2.80561 c 11.61868,1.12284 23.22389,6.87547 30.96881,14.48168 a 1.400309,1.400309 0 0 0 0.005,0.003 c 0.9538,0.96048 1.54007,2.27159 1.54007,3.7381 0,2.9465 -2.35701,5.30611 -5.30393,5.30611 -1.49342,0 -2.82666,-0.60856 -3.79134,-1.59361 a 1.4003273,1.4003273 0 0 0 -0.002,-0.003 1.4002351,1.4002351 0 0 0 0,-0.0155 c -4.21225,-4.18016 -9.7536,-7.33344 -15.38514,-9.32921 a 1.4002348,1.4002348 0 0 0 -0.69876,-0.16276 1.4002348,1.4002348 0 0 0 -0.91699,0.38203 1.4002351,1.4002351 0 0 0 -0.0518,0.0259 1.4002348,1.4002348 0 0 0 -0.0622,0.0632 1.4002351,1.4002351 0 0 0 -0.16069,1.67412 l 4.34391,9.8553 h -31.43637 l 4.33925,-9.8439 a 1.4002351,1.4002351 0 0 0 0.20216,-0.57626 1.4002348,1.4002348 0 0 0 -1.38145,-1.61835 1.4002348,1.4002348 0 0 0 -0.79258,0.24519 c -5.91975,2.05061 -11.11224,5.34245 -15.41624,9.72509 -0.93565,0.82394 -2.15174,1.32194 -3.50209,1.32194 -2.94692,0 -5.30652,-2.35743 -5.30652,-5.30399 0,-1.44178 0.56968,-2.73381 1.49497,-3.68999 9.36689,-8.58479 19.08368,-13.4606 30.86721,-14.68021 0.11404,-0.0156 1.4789,0.3867 2.51719,0.96364 1.03829,0.577 1.88167,1.18022 1.88167,1.18022 a 1.4002351,1.4002351 0 0 0 1.63234,-0.002 c 0,0 0.84079,-0.60229 1.87701,-1.18016 1.03621,-0.57772 2.40107,-0.97889 2.51563,-0.96754 z m -48.81153,30.19556 c -0.38877,-0.005 -0.78428,0.005 -1.17617,0.056 -1.04451,0.12803 -2.07969,0.46134 -3.04489,1.01895 -1.85109,1.06867 -3.12834,2.77363 -3.70321,4.67552 a 1.4002351,1.4002351 0 0 0 -0.0726,0.22601 c -0.003,0.0155 -0.005,0.0259 -0.005,0.0466 a 1.4002351,1.4002351 0 0 0 -0.005,0.0207 c -2.84376,12.83213 -2.18233,24.43791 2.90234,35.80855 a 1.4002351,1.4002351 0 0 0 0,0.002 c 0.67906,1.51084 2.0294,2.24832 3.2061,2.95392 0.73089,0.43802 0.97764,0.53345 1.39492,0.73779 -0.0518,0.46342 -0.0726,0.72286 -0.0622,1.57288 0,1.37067 0,2.90789 0.9455,4.25227 7.17783,10.05384 18.34812,17.49997 29.42511,20.60872 a 1.4002351,1.4002351 0 0 0 0.13996,0.0415 c 0.0518,0.005 0.0622,0.0156 0.0985,0.0207 a 1.4002351,1.4002351 0 0 0 0.0518,0.005 c 1.96772,0.49297 4.13294,0.24985 6.02291,-0.84115 3.86235,-2.22986 5.19611,-7.2093 2.96609,-11.07165 -1.12641,-1.95108 -2.95728,-3.26691 -4.98358,-3.79284 -0.005,-10e-4 -0.005,-0.003 0,-0.005 -0.002,-3.7e-4 -0.003,-7.8e-4 -0.005,-10e-4 -4.23869,-1.15627 -8.4639,-3.3685 -12.19148,-6.11507 l 9.35497,-1.01942 a 1.4002348,1.4002348 0 0 0 1.51882,-1.12719 1.4002348,1.4002348 0 0 0 -0.30066,-1.2021 L 717.4499,-812.382 a 1.4002348,1.4002348 0 0 0 -1.06576,-0.86308 1.4002348,1.4002348 0 0 0 -0.0518,-0.005 1.4002348,1.4002348 0 0 0 -0.0518,-0.005 1.4002348,1.4002348 0 0 0 -0.21253,-0.005 1.4002348,1.4002348 0 0 0 -1.1938,0.76558 l -5.61702,7.66939 c -0.53496,-4.75405 -0.14514,-9.456 1.13419,-14.03867 a 1.4002351,1.4002351 0 0 0 0.005,-0.0207 1.400434,1.400434 0 0 0 0,-0.0746 c 5.2e-4,-0.003 10e-4,-0.005 0.002,-0.005 a 1.4002351,1.4002351 0 0 0 0,-0.0778 c 0.36286,-1.85068 0.0778,-3.84494 -0.93565,-5.60096 -1.46335,-2.53466 -4.11169,-3.98111 -6.85074,-4.04555 z m 87.3542,0 c -2.73905,0.0633 -5.38635,1.51089 -6.85022,4.04555 -1.01341,1.75581 -1.29644,3.74992 -0.93617,5.60039 a 1.4002351,1.4002351 0 0 0 0.0518,0.18091 c 1.28088,4.58247 1.67121,9.28421 1.13677,14.0381 l -5.62532,-7.67976 a 1.4002348,1.4002348 0 0 0 -1.22904,-0.75474 1.4002348,1.4002348 0 0 0 -0.057,0.002 1.4002348,1.4002348 0 0 0 -0.0518,0 1.4002348,1.4002348 0 0 0 -0.0518,0.005 1.4002348,1.4002348 0 0 0 -0.003,5.7e-4 1.4002348,1.4002348 0 0 0 -1.19743,0.89584 l -17.62396,30.52374 a 1.4002348,1.4002348 0 0 0 -0.254,1.43619 1.4002348,1.4002348 0 0 0 0.005,0.0156 1.4002348,1.4002348 0 0 0 0,0.0415 1.4002348,1.4002348 0 0 0 1.44002,0.86034 l 9.35446,1.01942 c -3.72499,2.74449 -7.94761,4.95497 -12.18318,6.1117 a 1.4002351,1.4002351 0 0 0 0,0.003 c -2.0346,0.52226 -3.87376,1.84098 -5.0038,3.79881 -2.23054,3.86235 -0.8947,8.84121 2.96765,11.07113 1.891,1.09152 4.05467,1.33453 6.02291,0.84115 a 1.4002351,1.4002351 0 0 0 0.0726,-0.0155 c 0,-0.005 0.0518,-0.005 0.057,-0.0155 a 1.4002351,1.4002351 0 0 0 0.14514,-0.0415 c 11.07699,-3.10922 22.24676,-10.55432 29.42459,-20.60821 v -0.002 c 0.96313,-1.34402 0.92374,-2.87995 0.94447,-4.25004 0,-0.85012 -0.0518,-1.10941 -0.0622,-1.57294 0.41987,-0.20423 0.66299,-0.30065 1.39337,-0.73774 1.17669,-0.70565 2.52704,-1.44313 3.2061,-2.95396 a 1.4002351,1.4002351 0 0 0 0.002,-0.002 c 5.08104,-11.36271 5.74299,-22.96029 2.90649,-35.78179 a 1.4002351,1.4002351 0 0 0 -0.0518,-0.17055 c -0.002,-0.005 0,-0.0156 0,-0.0207 a 1.4002351,1.4002351 0 0 0 0,-0.0705 c -0.56606,-1.92672 -1.85109,-3.65703 -3.7224,-4.7373 -0.96571,-0.55735 -2.00193,-0.89077 -3.04696,-1.01891 -0.39396,-0.0466 -0.78481,-0.07 -1.17617,-0.056 z m -87.66055,2.78711 c 1.8796,-0.0466 3.71877,0.90362 4.73166,2.65798 0.67957,1.17731 0.8553,2.48956 0.60234,3.71897 -1.63493,5.90187 -1.89101,12.02472 -0.71483,18.15861 a 1.4002348,1.4002348 0 0 0 2.11027,1.35361 1.4002351,1.4002351 0 0 0 0.0518,-0.0207 1.4002348,1.4002348 0 0 0 0.003,-0.002 1.4002351,1.4002351 0 0 0 0.56502,-0.61353 l 6.32356,-8.6346 15.71897,27.22091 -10.6991,1.1655 a 1.4002351,1.4002351 0 0 0 0,-5.7e-4 1.4002351,1.4002351 0 0 0 -0.97401,2.43648 1.4004321,1.4004321 0 0 0 0.0518,0.0363 1.4002351,1.4002351 0 0 0 0.005,0.003 c 4.54349,3.91103 10.06254,7.16726 15.81279,8.75331 a 1.4002351,1.4002351 0 0 0 0.12959,0.0363 c 1.33531,0.34264 2.52911,1.19126 3.27608,2.48464 1.4732,2.55182 0.61064,5.77383 -1.94128,7.24719 -1.27052,0.73338 -2.69966,0.88091 -4.00906,0.53485 a 1.4002351,1.4002351 0 0 0 -0.005,-0.002 c -10.46013,-2.90394 -21.24321,-10.07866 -28.025,-19.57888 a 1.4002351,1.4002351 0 0 0 -0.002,-0.002 c -0.0726,-0.0938 -0.40432,-1.47387 -0.41987,-2.66015 0,-1.18629 0.0829,-2.21825 0.0829,-2.21825 a 1.4002351,1.4002351 0 0 0 -0.81642,-1.4138 c 0,0 -0.94343,-0.42869 -1.96202,-1.03963 -1.0186,-0.61074 -2.04496,-1.59492 -2.09162,-1.69932 -4.83584,-10.81469 -5.47084,-21.66774 -2.71883,-34.07315 0.36804,-1.27886 1.19743,-2.41331 2.44566,-3.13384 0.79724,-0.46031 1.66084,-0.69285 2.51511,-0.71695 z m 87.96743,0 c 0.85426,0.0207 1.71735,0.25711 2.51459,0.71695 1.24823,0.72059 2.08229,1.85498 2.44825,3.13379 2.75201,12.40619 2.11546,23.26017 -2.72091,34.07539 -0.0518,0.10574 -1.0725,1.08701 -2.09005,1.69708 -1.01859,0.61069 -1.96306,1.03969 -1.96306,1.03969 a 1.4002351,1.4002351 0 0 0 -0.81435,1.41379 c 0,0 0.0985,1.03197 0.0829,2.21825 0,1.18628 -0.35249,2.56644 -0.41987,2.66021 a 1.4002351,1.4002351 0 0 0 -0.002,0.002 c -6.78179,9.50022 -17.56539,16.67494 -28.02552,19.57894 a 1.4002351,1.4002351 0 0 0 -0.005,0.002 c -1.30888,0.34627 -2.73853,0.19853 -4.00905,-0.53485 -2.55192,-1.47336 -3.41656,-4.69542 -1.94284,-7.24719 0.74645,-1.29348 1.94076,-2.14179 3.2766,-2.48464 a 1.4002351,1.4002351 0 0 0 0,-0.005 c 5.78912,-1.5747 11.34913,-4.84907 15.92216,-8.78514 a 1.4002351,1.4002351 0 0 0 -0.9398,-2.47256 l -10.70324,-1.16658 15.71637,-27.22091 6.34585,8.66533 a 1.4002351,1.4002351 0 0 0 0.7874,0.68441 1.4005221,1.4005221 0 0 0 0.0518,0.0207 1.4002351,1.4002351 0 0 0 0,0.005 1.4005221,1.4005221 0 0 0 1.81688,-1.37331 c 1.19587,-6.16898 0.94239,-12.32978 -0.70498,-18.26462 -0.24882,-1.22339 -0.0726,-2.52714 0.60597,-3.69766 1.01289,-1.75442 2.85257,-2.7107 4.73217,-2.65804 z m -52.53963,1.63633 c -2.84531,0 -5.35058,1.46475 -7.11044,3.51831 -1.75986,2.05357 -2.84428,4.72632 -2.84428,7.44785 0,7.62098 4.59999,13.38165 9.04758,17.16708 4.44759,3.78537 8.90088,5.73381 8.90088,5.73381 a 1.4002351,1.4002351 0 0 0 1.12434,0 c 0,0 4.45278,-1.94844 8.90037,-5.73381 4.44759,-3.78543 9.04758,-9.5461 9.04758,-17.16708 0,-2.72153 -1.08184,-5.39428 -2.84169,-7.44785 -1.75986,-2.05356 -4.26772,-3.51831 -7.11304,-3.51831 -3.55703,0 -6.71233,2.05973 -8.54321,4.89707 -1.82413,-2.85097 -4.99809,-4.89707 -8.56809,-4.89707 z m 0,2.80125 c 3.25431,0 6.40806,2.79955 7.18094,5.83506 a 1.4002351,1.4002351 0 0 0 1.17877,1.10422 1.4002351,1.4002351 0 0 0 0.14514,0.0155 1.4002351,1.4002351 0 0 0 0.27992,-0.0155 1.4002351,1.4002351 0 0 0 1.1513,-1.09546 c 0.79724,-3.00436 3.9655,-5.83941 7.17834,-5.83941 1.88012,0 3.64931,0.97863 4.98566,2.53819 1.33687,1.55966 2.17092,3.66926 2.17092,5.62666 0,6.48913 -3.95618,11.53741 -8.06372,15.03353 -3.6576,3.11295 -6.89117,4.65748 -7.64799,5.00862 -0.75733,-0.35145 -3.99143,-1.89587 -7.64851,-5.00862 -4.10754,-3.49612 -8.06164,-8.5444 -8.06164,-15.03353 0,-1.9574 0.83198,-4.067 2.16885,-5.62666 1.33635,-1.55956 3.10553,-2.53819 4.98513,-2.53819 z m -48.02982,34.6119 c -0.38878,0.005 -0.78378,0.0363 -1.17462,0.0798 -1.39078,0.17106 -2.76912,0.61701 -4.05571,1.35957 -5.14531,2.97061 -6.91865,9.5914 -3.94788,14.73656 2.97076,5.14526 9.59031,6.91875 14.73614,3.94819 5.14531,-2.97055 6.92072,-9.59135 3.94996,-14.73655 -2.01904,-3.49712 -5.72537,-5.43659 -9.50789,-5.3876 z m 113.17147,0 c -3.78201,-0.0466 -7.4873,1.89059 -9.50634,5.3877 -2.97076,5.14516 -1.19742,11.76595 3.94789,14.73656 5.14531,2.9705 11.76538,1.19696 14.73614,-3.9482 2.97076,-5.14516 1.19743,-11.766 -3.9484,-14.73656 -1.28607,-0.74266 -2.66441,-1.18856 -4.05519,-1.35962 -0.38877,-0.0466 -0.78273,-0.0752 -1.1741,-0.0798 z m -112.83039,2.78767 c 2.69499,0.056 5.28735,1.48316 6.74033,3.99957 2.21395,3.83457 0.91233,8.69799 -2.92255,10.91189 -3.83488,2.21405 -8.69872,0.91196 -10.91267,-2.92261 -2.21395,-3.83457 -0.90973,-8.69804 2.92463,-10.91199 0.95898,-0.55315 1.98223,-0.88796 3.01223,-1.0173 0.38359,-0.0466 0.7734,-0.07 1.15803,-0.0632 z m 112.49086,0 c 0.38359,-0.005 0.77185,0.005 1.15803,0.0632 1.03,0.12908 2.05325,0.46394 3.01171,1.0173 3.83488,2.21395 5.13702,7.07742 2.92308,10.91199 -2.21395,3.83462 -7.0752,5.13666 -10.91008,2.92271 -3.83488,-2.21395 -5.13857,-7.07737 -2.92462,-10.91199 1.45298,-2.51652 4.04637,-3.94223 6.74188,-3.99957 z"
       id="path7136" />
  </g>
</svg>
