<svg id="Layer_1" data-name="Layer 1" xmlns="http://www.w3.org/2000/svg" viewBox="0 0 100 100">
   <metadata>
      <rdf:RDF xmlns:rdf="http://www.w3.org/1999/02/22-rdf-syntax-ns#">
         <rdf:Description xmlns:dc="http://purl.org/dc/elements/1.1/" rdf:about="">
            <dc:title>
               <rdf:Alt>
                  <rdf:li xml:lang="x-default">Superhero Strength Icon</rdf:li>
               </rdf:Alt>
            </dc:title>
            <dc:description>
               <rdf:Alt>
                  <rdf:li xml:lang="x-default">Superhero Strength Icon On White Background</rdf:li>
               </rdf:Alt>
            </dc:description>
            <dc:subject>
               <rdf:Bag>
                  <rdf:li>icon</rdf:li>
                  <rdf:li>superhero</rdf:li>
                  <rdf:li>strength</rdf:li>
                  <rdf:li>power</rdf:li>
                  <rdf:li>cape</rdf:li>
                  <rdf:li>confidence</rdf:li>
                  <rdf:li>hero</rdf:li>
                  <rdf:li>fearless</rdf:li>
                  <rdf:li>sign</rdf:li>
                  <rdf:li>symbol</rdf:li>
               </rdf:Bag>
            </dc:subject>
         </rdf:Description>
      </rdf:RDF>
   </metadata>
  <defs>
    <style>
      .cls-1 {
        fill: #3a6b56;
        stroke-width: 0px;
      }
    </style>
  </defs>
  <g id="_010000ff" data-name="#010000ff">
    <g>
      <path class="cls-1" d="M21.7728872,23.6545453c.4019562-.9270752,1.2618513-1.6850846,2.2751422-1.8395977,1.1218943-.0358264,2.2449093-.0235118,3.3668036-.0313502.9942553.1018891,1.945963.8442217,2.1553382,1.8429566.0615831.6191697.0190357,1.2428156.0279914,1.8642269.0134387.9080395-.7311354,1.6772428-1.5663979,1.9235685-.5060834.1063687-1.0267228.0582209-1.5384065.0627005-.662838,1.653731-1.280887,3.3231388-1.945963,4.9757524,3.4003953,1.2148277,6.7694404,2.5147469,10.1620007,3.7497275,1.8272763.7009059,3.8874465.642685,5.7024082-.0671766,3.3231388-1.1935539,6.621645-2.456526,9.9302311-3.6859097-.6561203-1.6593313-1.2495367-3.3444125-1.9571603-4.9824701-1.0950236.1500335-2.391584-.1780249-2.8685586-1.2786489-.292232-.6415608-.1142037-1.3693373-.1713073-2.0489695-.1186833-1.2327426,1.035682-2.278501,2.211321-2.3333631.9349136-.012318,1.8698272.0022381,2.8058582-.0067177,1.2181865-.0985303,2.3938255.7367323,2.8461641,1.8474327.3235823.7893563.5956579,1.6022277.9774645,2.3669514,1.0636734,2.1922887,1.7959261,4.5211723,2.5875238,6.8198263.5710219,1.5339304-.2911147,3.3712866-1.7735384,4.0117301-3.4227898,1.315596-6.8444555,2.6379097-10.2504511,3.9971706-.6527581,4.2121461-1.2898427,8.4287717-1.9190889,12.6453974,1.7544993,2.691651,3.579541,5.3373992,5.2646222,8.0738392,2.4240584,3.9355943,4.2535728,8.1925293,6.4581761,12.2468.8363867,1.6750081-.2967048,3.8538616-2.0836785,4.2804503-1.3648612.3907589-3.001798-.1287632-3.7262157-1.3894972-2.2381951-4.0072471-4.1987107-8.170128-6.6238865-12.0721339-1.493621-2.3882218-3.068978-4.7238298-4.6712058-7.039278-2.3691929,3.3836046-4.6891207,6.8164675-6.666434,10.4486325-1.5798333,2.8775178-3.0712161,5.80318-4.647694,8.6818117-.8419802,1.3984563-2.7756253,1.8720687-4.2188637,1.1722836-1.1666816-.5553519-1.9045346-1.8653511-1.8015264-3.1495934.0716579-.6740352.4265887-1.2652101.7423326-1.8485535,1.4062879-2.6446274,2.6591835-5.3676321,4.084507-8.0033003,2.0657636-3.9826179,4.7148706-7.6181451,7.1221314-11.3925018-.597896-4.2311817-1.2361014-8.4567631-1.8306386-12.6879449-3.3791216-1.3626231-6.8097464-2.596483-10.2079054-3.912079-1.440997-.5822226-2.3568749-2.2829806-1.9101332-3.7978753.7781607-2.4307726,1.6044675-4.8537069,2.7039707-7.1613201.3571706-.7445707.6438023-1.5193743.9550666-2.2829772M34.938924,38.8393221c-.685229.1410744-.8307864,1.1823567-.312385,1.5943893.7322561.6863498,1.4969798,1.3391079,2.1889299,2.0680051.265358.3347761.8016742.3168612,1.1465269.139957.7512884-.7792798,1.5440069-1.5193743,2.3535161-2.2393124.5486343-.5094422.1903429-1.5742363-.5844607-1.6067073-1.5955101.0100765-3.2010967-.0593416-4.7921272.0436682Z" />
      <path class="cls-1" d="M36.7516477,23.8751177c1.6626901-.2060197,3.407113.3661263,4.5973081,1.5518419,1.6380576,1.5719983,2.1620558,4.1875135,1.2316218,6.263357-.7602475,1.7914499-2.5046704,3.1327993-4.4461538,3.3511302-2.1855711.3023085-4.455113-.8722131-5.5165483-2.7957817-.8643747-1.4969798-.9785784-3.3970365-.3023051-4.9869497.7490503-1.8071233,2.4889935-3.1507108,4.4360773-3.3835978Z" />
      <path class="cls-1" d="M74.2119859,34.9709079c2.681578-.0111938,5.4863154-1.0188844,7.1769935-3.1798229.7076235,2.8472849.9058049,5.9039484.024636,8.7366772-.3739682,1.1207769-.8531775,2.2561066-1.705241,3.1025664-1.0614319,1.11518-2.0243335,2.3591164-2.571847,3.8124314-.6740352,1.6425337-.6034963,3.4742896-1.2629755,5.1213064-.3347761.875572-.7412119,1.8451912-1.6391715,2.276263-1.9023016,1.0300851-3.7418959,2.2605861-5.1358624,3.9378289-.6930675.7938393-1.220428,1.785853-2.2034894,2.2695453-2.1150254,1.2786455-4.9388018,1.0849471-6.8881203-.4209918-4.9264873-3.7698805-9.8093063-7.5946299-14.7290793-11.3723488-.2261693-.119804-.0940507-.3974766-.0884538-.5911783.3526944-2.2281152.6348466-4.4719071,1.0580765-6.6854662,2.9066265-1.2013923,5.878195-2.2471508,8.8016157-3.4093545,1.725394-.5363163,3.0947314-2.0556871,3.4362251-3.8314636.2239312-.87781.0078384-1.773535-.1634654-2.6390305,2.9738066.2866351,5.9218564.8341452,8.8128096,1.5887924,2.3221659.5867022,4.6510562,1.3592643,7.0773493,1.2842458Z" />
    </g>
  </g>
</svg>
