<svg id="Capa_1" enable-background="new 0 0 512 512" viewBox="0 0 512 512" xmlns="http://www.w3.org/2000/svg"><g><g><path d="m292.709 352.919 2.055-5.396h21.367l2.029 5.375c1.133 3.003 3.987 4.854 7.018 4.854.88 0 1.775-.156 2.647-.485 3.875-1.463 5.831-5.79 4.368-9.665l-18.604-49.298c-.025-.069-.053-.139-.081-.207-1.338-3.25-4.471-5.347-7.984-5.347h-.009c-3.517.004-6.649 2.109-7.981 5.364-.023.057-.046.114-.067.171l-18.774 49.296c-1.475 3.871.469 8.204 4.34 9.678 3.863 1.474 8.201-.468 9.676-4.34zm17.761-20.396h-9.993l5.019-13.18z"/><path d="m233.163 350.25v-25.848l20.075 29.071c2.155 3.111 5.766 4.426 9.206 3.354 3.496-1.093 5.756-4.336 5.756-8.263v-48.314c0-4.142-3.357-7.5-7.5-7.5s-7.5 3.358-7.5 7.5v26.771l-21.365-30.939c-1.865-2.7-5.266-3.875-8.404-2.898-3.133.977-5.268 3.878-5.268 7.16v49.907c0 4.142 3.357 7.5 7.5 7.5s7.5-3.359 7.5-7.501z"/><path d="m417.619 357.522c4.143 0 7.5-3.358 7.5-7.5s-3.357-7.5-7.5-7.5h-13.376v-9.772h11.837c4.143 0 7.5-3.358 7.5-7.5s-3.357-7.5-7.5-7.5h-11.837v-9.772h13.376c4.143 0 7.5-3.358 7.5-7.5s-3.357-7.5-7.5-7.5h-20.876c-4.143 0-7.5 3.358-7.5 7.5v49.544c0 4.142 3.357 7.5 7.5 7.5z"/><path d="m94.381 293.489c-4.143 0-7.5 3.358-7.5 7.5v48.521c0 1.994.794 3.906 2.207 5.313 1.405 1.4 3.31 2.187 5.293 2.187h.028c.416-.001 10.225-.04 14.148-.108 15.391-.27 26.562-13.582 26.562-31.653 0-18.997-10.889-31.761-27.095-31.761h-13.643zm25.738 31.761c0 8.187-3.656 16.512-11.823 16.655-1.505.026-3.972.048-6.415.065v-33.481h6.144c11.222 0 12.094 12.829 12.094 16.761z"/><path d="m371.743 292.75h-27.612c-4.143 0-7.5 3.358-7.5 7.5s3.357 7.5 7.5 7.5h6.25v42.5c0 4.142 3.357 7.5 7.5 7.5s7.5-3.358 7.5-7.5v-42.5h6.362c4.143 0 7.5-3.358 7.5-7.5s-3.357-7.5-7.5-7.5z"/><path d="m208.163 325.25c0-17.92-14.579-32.5-32.5-32.5s-32.5 14.58-32.5 32.5 14.579 32.5 32.5 32.5 32.5-14.58 32.5-32.5zm-50 0c0-9.649 7.851-17.5 17.5-17.5s17.5 7.851 17.5 17.5-7.851 17.5-17.5 17.5-17.5-7.851-17.5-17.5z"/><path d="m232 173.25c4.143 0 7.5-3.358 7.5-7.5v-10c0-4.142-3.357-7.5-7.5-7.5s-7.5 3.358-7.5 7.5v10c0 4.142 3.357 7.5 7.5 7.5z"/><path d="m280 173.25c4.143 0 7.5-3.358 7.5-7.5v-10c0-4.142-3.357-7.5-7.5-7.5s-7.5 3.358-7.5 7.5v10c0 4.142 3.357 7.5 7.5 7.5z"/><path d="m256 233.25c18.472 0 33.5-15.028 33.5-33.5 0-4.142-3.357-7.5-7.5-7.5s-7.5 3.358-7.5 7.5c0 10.201-8.299 18.5-18.5 18.5s-18.5-8.299-18.5-18.5c0-4.142-3.357-7.5-7.5-7.5s-7.5 3.358-7.5 7.5c0 18.472 15.028 33.5 33.5 33.5z"/><path d="m444.5 236.25h-114.571c9.513-14.162 15.071-31.194 15.071-49.5 0-49.075-39.925-89-89-89-19.381 0-37.806 6.123-53.283 17.708-3.316 2.482-3.992 7.183-1.511 10.499 2.482 3.315 7.183 3.992 10.499 1.51 12.863-9.627 28.18-14.716 44.295-14.716 40.804 0 74 33.196 74 74s-33.196 74-74 74-74-33.196-74-74c0-12.275 3.067-24.433 8.871-35.157 1.971-3.643.615-8.194-3.027-10.166-3.644-1.972-8.195-.616-10.166 3.027-6.986 12.909-10.678 27.535-10.678 42.295 0 18.306 5.558 35.338 15.071 49.5h-46.071c-4.143 0-7.5 3.358-7.5 7.5s3.357 7.5 7.5 7.5h58.738c15.969 15.175 37.547 24.5 61.262 24.5s45.294-9.325 61.262-24.5h127.238c28.948 0 52.5 23.551 52.5 52.5v43c0 28.949-23.552 52.5-52.5 52.5h-40.5c-4.143 0-7.5 3.358-7.5 7.5s3.357 7.5 7.5 7.5h40.5c37.22 0 67.5-30.28 67.5-67.5v-43c0-37.22-30.28-67.5-67.5-67.5z"/><path d="m369 399.25h-301.5c-28.948 0-52.5-23.551-52.5-52.5v-43c0-28.949 23.552-52.5 52.5-52.5h33.5c4.143 0 7.5-3.358 7.5-7.5s-3.357-7.5-7.5-7.5h-33.5c-37.22 0-67.5 30.28-67.5 67.5v43c0 37.22 30.28 67.5 67.5 67.5h301.5c4.143 0 7.5-3.358 7.5-7.5s-3.357-7.5-7.5-7.5z"/></g></g><g/><g/><g/><g/><g/><g/><g/><g/><g/><g/><g/><g/><g/><g/><g/></svg>