<svg id="Capa_1" enable-background="new 0 0 512 512" viewBox="0 0 512 512" xmlns="http://www.w3.org/2000/svg"><g><path d="m494.5 38.48h-382.25c-4.142 0-7.5 3.358-7.5 7.5s3.358 7.5 7.5 7.5h382.25c1.378 0 2.5 1.122 2.5 2.5v310c0 1.378-1.122 2.5-2.5 2.5h-477c-1.378 0-2.5-1.122-2.5-2.5v-137.33c0-4.142-3.358-7.5-7.5-7.5s-7.5 3.358-7.5 7.5v137.33c0 9.649 7.851 17.5 17.5 17.5h155.974l-21.964 41h-30.5c-6.893 0-12.5 5.607-12.5 12.5v24.04c0 6.893 5.607 12.5 12.5 12.5h183.37c4.142 0 7.5-3.358 7.5-7.5s-3.358-7.5-7.5-7.5h-180.87v-19.04h262.67v19.04h-46.8c-4.142 0-7.5 3.358-7.5 7.5s3.358 7.5 7.5 7.5h49.3c6.893 0 12.5-5.607 12.5-12.5v-24.04c0-6.893-5.607-12.5-12.5-12.5h-28.19l-21.964-41h155.974c9.649 0 17.5-7.851 17.5-17.5v-310c0-9.649-7.851-17.5-17.5-17.5zm-288.306 386c14.532-9.947 31.696-15.289 49.806-15.289 18.103 0 35.27 5.342 49.805 15.289zm137.279 0h-14.302c-19.522-19.55-45.409-30.289-73.171-30.289-27.774 0-53.652 10.735-73.175 30.289h-14.298l21.964-41h131.017z"/><path d="m7.5 201.15c4.142 0 7.5-3.358 7.5-7.5v-137.67c0-1.378 1.122-2.5 2.5-2.5h59.75c4.142 0 7.5-3.358 7.5-7.5s-3.358-7.5-7.5-7.5h-59.75c-9.649 0-17.5 7.851-17.5 17.5v137.67c0 4.142 3.358 7.5 7.5 7.5z"/><path d="m256 78.93c27.618 0 51.842 18.648 58.91 45.349 1.06 4.004 5.165 6.388 9.169 5.332 4.004-1.06 6.391-5.166 5.332-9.169-8.807-33.274-38.995-56.512-73.411-56.512-41.868 0-75.93 34.062-75.93 75.93s34.062 75.93 75.93 75.93c34.416 0 64.604-23.238 73.411-56.511 1.06-4.004-1.327-8.109-5.332-9.169-4.004-1.057-8.109 1.327-9.169 5.332-2.314 8.742-6.476 16.612-11.985 23.256-1.259-2.731-2.995-5.243-5.153-7.377-3.058-3.023-6.867-5.228-11.015-6.374l-10.236-2.828v-8.727c7.048-6.378 11.23-15.524 11.23-25.238v-6.738c0-12.461-7.344-23.814-18.709-28.925-8.287-3.725-17.793-3.726-26.082 0-11.365 5.11-18.709 16.464-18.709 28.925v6.738c0 9.714 4.182 18.86 11.23 25.238v8.727l-10.237 2.828c-4.147 1.146-7.956 3.351-11.013 6.373-2.156 2.131-3.891 4.64-5.15 7.367-8.746-10.55-14.01-24.084-14.01-38.827-.001-33.597 27.332-60.93 60.929-60.93zm-5.52 85.158v-2.271c1.811.438 3.665.667 5.52.667s3.709-.229 5.52-.667v2.272c0 1.772.383 3.477 1.074 5.028-1.761 1.632-4.063 2.568-6.594 2.568s-4.834-.936-6.594-2.568c.691-1.552 1.074-3.257 1.074-5.029zm-11.23-42.672c0-6.567 3.871-12.551 9.86-15.244 4.378-1.969 9.401-1.969 13.78 0 5.99 2.693 9.86 8.677 9.86 15.244v6.738c0 6.834-3.691 13.174-9.634 16.548l-3.027 1.718c-2.521 1.432-5.655 1.432-8.179 0l-3.026-1.718c-5.942-3.374-9.634-9.714-9.634-16.548zm-14.475 60.571c1.239-1.225 2.783-2.118 4.463-2.583l7.409-2.047c4.646 5.835 11.718 9.326 19.353 9.326s14.707-3.491 19.353-9.327l7.408 2.047c1.682.465 3.225 1.358 4.465 2.584 1.93 1.908 3.037 4.558 3.037 7.272v.952c-9.86 6.713-21.707 10.578-34.263 10.578-12.696 0-24.493-3.908-34.263-10.577v-.953c0-2.713 1.107-5.363 3.038-7.272z"/><path d="m157.108 324.05c4.142 0 7.5-3.358 7.5-7.5v-25.122l20.001 29.07c1.53 2.224 4.055 3.551 6.754 3.551 4.521 0 8.199-3.678 8.199-8.199v-48.556c0-4.142-3.358-7.5-7.5-7.5s-7.5 3.358-7.5 7.5v26.672l-21.275-30.923c-1.861-2.707-5.27-3.886-8.404-2.911-3.137.975-5.274 3.877-5.274 7.162v49.255c-.001 4.143 3.357 7.501 7.499 7.501z"/><path d="m340.087 324.05h17.262c4.142 0 7.5-3.358 7.5-7.5s-3.358-7.5-7.5-7.5h-9.762v-41.755c0-4.142-3.358-7.5-7.5-7.5s-7.5 3.358-7.5 7.5v49.255c0 4.142 3.358 7.5 7.5 7.5z"/><path d="m382.49 324.05h17.262c4.142 0 7.5-3.358 7.5-7.5s-3.358-7.5-7.5-7.5h-9.762v-41.755c0-4.142-3.358-7.5-7.5-7.5s-7.5 3.358-7.5 7.5v49.255c0 4.142 3.358 7.5 7.5 7.5z"/><path d="m112.248 324.05h20.754c4.142 0 7.5-3.358 7.5-7.5s-3.358-7.5-7.5-7.5h-13.254v-9.627h10.933c4.142 0 7.5-3.358 7.5-7.5s-3.358-7.5-7.5-7.5h-10.933v-9.627h13.254c4.142 0 7.5-3.358 7.5-7.5s-3.358-7.5-7.5-7.5h-20.754c-4.142 0-7.5 3.358-7.5 7.5v49.255c0 4.141 3.357 7.499 7.5 7.499z"/><path d="m216.629 324.05c4.142 0 7.5-3.358 7.5-7.5v-10.401l13.46 15.347c1.483 1.69 3.557 2.555 5.642 2.555 1.756 0 3.519-.613 4.942-1.861 3.114-2.731 3.424-7.47.693-10.584l-11.134-12.694c7.62-3.062 12.996-10.339 12.996-18.814 0-11.194-9.432-20.301-21.025-20.301h-13.074c-4.142 0-7.5 3.358-7.5 7.5v49.255c0 4.14 3.358 7.498 7.5 7.498zm7.5-49.255h5.574c3.266 0 6.025 2.427 6.025 5.301 0 2.858-2.815 5.365-6.025 5.365h-5.574z"/><path d="m290.803 324.05c17.715 0 32.127-14.412 32.127-32.127s-14.412-32.127-32.127-32.127-32.127 14.412-32.127 32.127 14.412 32.127 32.127 32.127zm0-49.255c9.444 0 17.127 7.683 17.127 17.127s-7.683 17.127-17.127 17.127-17.127-7.683-17.127-17.127 7.683-17.127 17.127-17.127z"/><path d="m71.748 254.295v75.254c0 15.164 12.336 27.5 27.5 27.5h313.505c15.164 0 27.5-12.336 27.5-27.5v-75.254c0-15.164-12.336-27.5-27.5-27.5h-313.505c-15.164 0-27.5 12.337-27.5 27.5zm353.504 0v75.254c0 6.893-5.607 12.5-12.5 12.5h-313.504c-6.893 0-12.5-5.607-12.5-12.5v-75.254c0-6.893 5.607-12.5 12.5-12.5h313.505c6.892 0 12.499 5.608 12.499 12.5z"/><path d="m155.743 93.936h-76.495c-4.142 0-7.5 3.358-7.5 7.5s3.358 7.5 7.5 7.5h76.495c4.142 0 7.5-3.358 7.5-7.5s-3.358-7.5-7.5-7.5z"/><path d="m144.009 144.189c4.142 0 7.5-3.358 7.5-7.5s-3.358-7.5-7.5-7.5h-64.761c-4.142 0-7.5 3.358-7.5 7.5s3.358 7.5 7.5 7.5z"/><path d="m432.752 93.936h-76.495c-4.142 0-7.5 3.358-7.5 7.5s3.358 7.5 7.5 7.5h76.495c4.142 0 7.5-3.358 7.5-7.5s-3.357-7.5-7.5-7.5z"/><path d="m432.752 129.189h-64.762c-4.142 0-7.5 3.358-7.5 7.5s3.358 7.5 7.5 7.5h64.762c4.142 0 7.5-3.358 7.5-7.5s-3.357-7.5-7.5-7.5z"/></g><g/><g/><g/><g/><g/><g/><g/><g/><g/><g/><g/><g/><g/><g/><g/></svg>