<svg id="Capa_1" enable-background="new 0 0 512 512" height="512" viewBox="0 0 512 512" width="512" xmlns="http://www.w3.org/2000/svg"><g><path d="m504.5 289.895c4.143 0 7.5-3.358 7.5-7.5v-45.49c0-46.092-37.498-83.59-83.59-83.59h-63.27v-39.41c0-46.092-37.498-83.59-83.59-83.59h-149.74c-4.142 0-7.5 3.358-7.5 7.5s3.358 7.5 7.5 7.5h149.74c37.82 0 68.59 30.769 68.59 68.59v39.41h-119.69c-46.092 0-83.59 37.498-83.59 83.59v80.752l-18.043 20.618c-5.292 6.045-12.446 6.219-17.375 4.366-4.927-1.852-10.191-6.69-10.191-14.716v-39.12c0-4.142-3.358-7.5-7.5-7.5h-10.161c-37.821 0-68.59-30.769-68.59-68.59v-98.81c0-37.821 30.769-68.59 68.59-68.59h18.22c4.142 0 7.5-3.358 7.5-7.5s-3.358-7.5-7.5-7.5h-18.22c-46.092 0-83.59 37.498-83.59 83.59v98.81c0 46.092 37.498 83.59 83.59 83.59h2.66v31.62c0 12.922 7.816 24.209 19.914 28.757 3.588 1.349 7.282 2.003 10.928 2.003 8.65 0 17.021-3.686 23.013-10.531l6.886-7.869c2.382 43.974 38.903 79.019 83.46 79.019h96.076l45.371 51.85c5.991 6.844 14.36 10.53 23.011 10.53 3.646 0 7.341-.655 10.928-2.003 12.098-4.547 19.914-15.835 19.914-28.757v-31.62h2.66c46.092 0 83.59-37.498 83.59-83.59v-23.32c0-4.142-3.357-7.5-7.5-7.5s-7.5 3.358-7.5 7.5v23.32c0 37.821-30.77 68.59-68.59 68.59h-10.16c-4.143 0-7.5 3.358-7.5 7.5v39.12c0 8.026-5.265 12.864-10.191 14.716-4.933 1.852-12.083 1.679-17.374-4.365l-47.61-54.41c-1.425-1.627-3.481-2.561-5.645-2.561h-99.481c-37.821 0-68.59-30.769-68.59-68.59v-98.81c0-37.821 30.77-68.59 68.59-68.59h197.96c37.82 0 68.59 30.769 68.59 68.59v45.49c0 4.143 3.357 7.501 7.5 7.501z"/><path d="m309.464 239.882c-1.487-3.617-5.011-5.986-8.887-5.948-3.911.003-7.396 2.345-8.876 5.965-.023.057-.046.113-.067.17l-34.783 91.328c-1.474 3.871.469 8.204 4.34 9.678 3.866 1.473 8.203-.468 9.678-4.339l6.823-17.915h45.534l6.753 17.894c1.133 3.003 3.987 4.854 7.018 4.854.88 0 1.775-.156 2.647-.485 3.875-1.462 5.831-5.79 4.368-9.665l-34.468-91.333c-.025-.068-.053-.136-.08-.204zm-26.06 63.94 17.158-45.052 17.002 45.052z"/><path d="m246.771 250.144c4.142 0 7.5-3.358 7.5-7.5s-3.358-7.5-7.5-7.5h-37.27c-4.142 0-7.5 3.358-7.5 7.5v91.955c0 4.142 3.358 7.5 7.5 7.5s7.5-3.358 7.5-7.5v-39.349h26.809c4.142 0 7.5-3.358 7.5-7.5s-3.358-7.5-7.5-7.5h-26.809v-30.106z"/><path d="m402.683 234.805c-29.675 0-53.816 24.142-53.816 53.817s24.142 53.817 53.816 53.817c12.325 0 23.688-4.175 32.771-11.171l8.6 8.6c1.465 1.465 3.385 2.197 5.304 2.197s3.839-.732 5.304-2.197c2.929-2.929 2.929-7.678 0-10.606l-8.698-8.698c6.616-8.941 10.537-19.991 10.537-31.942-.001-29.675-24.144-53.817-53.818-53.817zm0 92.633c-21.403 0-38.816-17.413-38.816-38.817s17.413-38.817 38.816-38.817c21.404 0 38.817 17.413 38.817 38.817 0 7.807-2.325 15.078-6.307 21.171l-10.167-10.167c-2.93-2.929-7.678-2.929-10.607 0s-2.929 7.678 0 10.606l10.311 10.311c-6.267 4.343-13.863 6.896-22.047 6.896z"/></g></svg>