<?xml version="1.0" encoding="utf-8" ?>
<svg xmlns="http://www.w3.org/2000/svg" xmlns:xlink="http://www.w3.org/1999/xlink" width="4092" height="4092">
	<path transform="scale(7.99278 7.99278)" fill="#3a6b56" d="M253.122 85.4739C255.327 85.1834 257.001 86.3831 258.639 87.7172C274.166 100.36 286.751 117.586 288.659 137.975C291.233 165.476 276.499 182.718 260.278 202.45L260.278 234.16C273.273 209.923 294.317 192.185 322.325 188.185C333.601 186.574 333.637 189.742 333.042 199.139C330.5 239.248 299.378 266.395 260.278 269.957C259.963 272.846 260.229 275.876 260.25 278.782L260.278 348.328C260.849 346.498 261.071 344.527 261.571 342.662C273.211 299.244 311.585 259.27 358.318 258.218C374.686 257.849 373.036 261.943 369.382 278.297C359.819 321.098 324.73 351.187 280.535 349.561C276.575 349.415 272.517 349.295 268.655 348.328C262.468 367.755 260.259 379.608 260.266 399.449L260.301 414.301C260.335 417.447 260.633 420.68 260.278 423.806C259.135 425.064 258.198 425.601 256.58 426.149C255.277 425.953 254.297 425.559 253.122 424.978C251.245 421.969 251.867 418.638 251.898 415.255C252.075 395.848 250.921 366.711 244.04 348.328C191.995 356.842 148.53 323.263 142.083 270.11C141.653 266.568 140.445 261.125 144.419 259.161C150.263 256.274 169.672 260.533 176.111 262.595C209.515 273.295 236.218 298.754 247.654 332.224C249.406 337.35 250.634 342.625 253.122 347.469C252.073 341.916 251.881 336.962 251.88 331.277L251.887 269.957C208.366 268.023 178.071 234.651 178.507 191.428C182.365 184.904 196.294 189.12 202.217 190.897C226.301 198.122 240.532 214.565 251.887 235.602L251.887 202.45C242.678 192.822 236.507 188.261 229.299 175.638C218.152 156.12 218.354 131.731 229.414 112.299C233.478 105.158 245.943 89.5214 253.122 85.4739ZM240.447 340.157L241.064 339.857C241.241 338.384 239.939 335.926 239.399 334.502C225.775 298.623 196.027 271.995 156.919 267.391C154.781 267.139 152.596 267.093 150.472 266.78C154.036 309.243 188.207 344.746 232.327 341.155C235.037 340.934 237.75 340.5 240.447 340.157ZM271.17 340.157C273.323 340.425 275.434 340.828 277.56 341.25C283.43 341.1 289.173 341.106 295.01 340.329C328.168 335.914 354.726 308.413 361.082 276.026C361.679 272.987 362.363 269.894 362.272 266.78C360.215 266.728 358.108 266.58 356.059 266.78C313.42 273.588 285.175 298.673 271.17 340.157ZM255.813 194.132C269.316 179.941 280.806 161.682 280.293 141.604C279.798 122.218 268.064 108.05 254.368 95.7899C225.618 121.235 220.474 156.233 247.063 185.549C249.799 188.566 252.86 191.331 255.813 194.132ZM250.837 261.04C248.529 231.183 218.15 199.206 187.303 197.077C186.353 208.947 195.13 228.776 202.514 237.423C214.252 251.165 232.446 261.141 250.837 261.04ZM262.79 261.04C294.206 257.137 319.59 235.254 323.988 203.482C324.184 202.064 325.798 196.445 323.189 197.077C292.774 199.937 269.96 226.144 262.077 254.202C261.563 256.032 260.105 259.152 260.957 260.993L262.79 261.04Z"/>
</svg>
