<svg id="Capa_1" enable-background="new 0 0 511.928 511.928" height="512" viewBox="0 0 511.928 511.928" width="512" xmlns="http://www.w3.org/2000/svg"><g><path d="m107.756 302.626c1.832 0 3.663-.39 5.368-1.168 39.376-17.961 45.256-38.11 45.256-48.523 0-16.181-12.766-28.855-29.062-28.855-9.615 0-16.873 3.174-21.562 6.148-4.689-2.975-11.947-6.148-21.562-6.148-16.297 0-29.062 12.675-29.062 28.855 0 10.413 5.88 30.563 45.255 48.523 1.706.778 3.538 1.168 5.369 1.168zm-35.624-49.692c0-6.717 4.929-13.855 14.062-13.855 6.641 0 11.428 2.344 14.274 4.31l.003.001c4.358 3.009 10.213 3.008 14.571-.001 2.847-1.966 7.634-4.31 14.275-4.31 9.133 0 14.062 7.139 14.062 13.855 0 11.446-12.969 23.986-35.624 34.482-22.653-10.495-35.623-23.035-35.623-34.482z"/><path d="m335.425 75.446-119.171 14.571c-4.111.502-7.037 4.243-6.534 8.354.465 3.803 3.699 6.591 7.435 6.591.304 0 .611-.019.92-.057l119.171-14.571c4.111-.502 7.037-4.243 6.534-8.354-.504-4.113-4.251-7.045-8.355-6.534z"/><path d="m510.179 184.165c-2.091-4.47-5.797-7.858-10.436-9.541l-90.267-32.743-5.68-46.456c-.502-4.112-4.252-7.042-8.354-6.534-4.111.502-7.037 4.243-6.534 8.354l4.756 38.9-51.583-18.711c-4.639-1.682-9.655-1.458-14.126.632-3.659 1.711-6.594 4.505-8.461 8.006l-97.375 11.907c-4.111.502-7.037 4.243-6.534 8.354.465 3.803 3.699 6.591 7.435 6.591.304 0 .611-.019.92-.057l89.61-10.957-12.741 35.125-72.824 8.904c-4.111.502-7.037 4.243-6.534 8.354.465 3.803 3.699 6.591 7.435 6.591.304 0 .611-.019.92-.057l65.268-7.981c-2.845 7.842-10.314 28.433-12.741 35.126l-48.483 5.928c-4.111.502-7.037 4.243-6.534 8.354.465 3.803 3.699 6.591 7.435 6.591.304 0 .611-.019.92-.057l40.927-5.004-12.741 35.125-24.141 2.952c-4.111.503-7.037 4.243-6.534 8.354.465 3.803 3.699 6.591 7.435 6.591.304 0 .611-.019.92-.057l16.585-2.028-2.997 8.264c-.081.224-.158.45-.231.677h-63.328l-29.777-243.484c-.05-.409.106-.708.246-.887.141-.179.394-.403.803-.454l216.917-26.523c.41-.046.708.106.888.247.179.14.403.393.453.802l4.265 34.879c.502 4.112 4.248 7.037 8.354 6.534 4.111-.502 7.037-4.243 6.534-8.354l-4.265-34.878c-.524-4.296-2.691-8.131-6.101-10.798-3.409-2.666-7.648-3.845-11.949-3.32l-216.916 26.523c-4.297.525-8.131 2.692-10.797 6.101-2.667 3.41-3.847 7.654-3.32 11.949l12.364 101.112h-139.083c-11.128.001-20.182 9.054-20.182 20.183v108.509c0 4.143 3.357 7.5 7.5 7.5s7.5-3.357 7.5-7.5v-108.509c0-2.857 2.324-5.182 5.182-5.182h140.916l15.352 125.553h-25.971c-11.196 0-20.306 9.109-20.306 20.306v25.18h-109.991c-2.857 0-5.182-2.324-5.182-5.182v-23.166c0-4.143-3.357-7.5-7.5-7.5s-7.5 3.357-7.5 7.5v23.166c0 11.128 9.054 20.182 20.182 20.182h109.992v110.168c0 11.196 9.109 20.306 20.306 20.306h211.042c11.196 0 20.306-9.109 20.306-20.306v-31.85c0-4.143-3.357-7.5-7.5-7.5s-7.5 3.357-7.5 7.5v31.85c0 2.926-2.38 5.306-5.306 5.306h-211.043c-2.926 0-5.306-2.38-5.306-5.306v-150.349c0-2.926 2.38-5.306 5.306-5.306h211.042c2.926 0 5.306 2.38 5.306 5.306v89.498c0 4.143 3.357 7.5 7.5 7.5s7.5-3.357 7.5-7.5v-44.861l42.022 15.243c4.636 1.68 9.654 1.459 14.125-.633 4.471-2.091 7.859-5.797 9.542-10.436.548-1.511 61.608-169.843 63.294-174.49 1.683-4.638 1.459-9.656-.631-14.126zm-76.764 183.503c-.427 1.177-1.308 1.734-1.794 1.962-.486.229-1.478.548-2.657.119l-47.137-17.098v-28.68c0-11.196-9.109-20.306-20.306-20.306h-90.69l29.185-80.46c54.52-7.521 72.986 11.048 94.28 32.462 15.5 15.588 32.895 33.08 65.63 38.916zm63.294-174.492-31.582 87.067c-29.717-4.504-44.549-19.418-60.194-35.153-18.902-19.01-38.337-38.557-82.211-38.557-5.291 0-10.937.284-16.98.888l26.772-73.805c.427-1.177 1.308-1.735 1.794-1.962.487-.228 1.482-.544 2.657-.119l157.663 57.19c1.177.427 1.735 1.308 1.963 1.795s.546 1.479.118 2.656z"/><path d="m453.983 190.268c-11.76-4.265-24.795 1.831-29.06 13.589-2.065 5.696-1.79 11.855.776 17.344 2.567 5.489 7.117 9.649 12.813 11.715 2.525.916 5.141 1.372 7.749 1.372 3.275 0 6.539-.719 9.595-2.147 5.489-2.567 9.649-7.117 11.716-12.813 4.266-11.759-1.831-24.795-13.589-29.06zm-.511 23.945c-.699 1.929-2.108 3.471-3.968 4.34-1.859.87-3.948.963-5.875.263-1.93-.7-3.472-2.109-4.341-3.968s-.963-3.946-.263-5.875c1.132-3.121 4.088-5.064 7.23-5.064.868 0 1.75.148 2.612.461 3.985 1.443 6.05 5.859 4.605 9.843z"/><path d="m244.21 358.761c-4.719-3.197-10.779-3.525-15.818-.854-5.036 2.671-8.165 7.872-8.165 13.573v55.328c0 5.701 3.129 10.902 8.166 13.573 5.067 2.688 11.128 2.324 15.818-.855l40.817-27.663c4.224-2.862 6.745-7.616 6.745-12.719 0-5.102-2.521-9.856-6.744-12.718zm32.403 40.685-40.817 27.663c-.1.066-.184.122-.376.021-.193-.103-.193-.204-.193-.321v-55.329c0-.117 0-.219.193-.321.076-.041.136-.057.186-.057.077 0 .131.037.189.076l40.818 27.664c.001.001.001.001.001.001.067.046.159.108.159.301s-.091.255-.16.302z"/></g></svg>