<?xml version="1.0" encoding="UTF-8"?>
<svg id="_Ñëîé_1" data-name="Ñëîé_1" xmlns="http://www.w3.org/2000/svg" version="1.1" viewBox="0 0 1663.06 2008">
  <!-- Generator: Adobe Illustrator 29.6.1, SVG Export Plug-In . SVG Version: 2.1.1 Build 9)  -->
  <defs>
    <style>
      .st0 {
        fill: #fff;
      }
    </style>
  </defs>
  <path fill="#901a2d" stroke="#701a2d" stroke-width="8" d="M933.52,1782.9c-1.8,0-3.52-.99-4.4-2.66-1.15-2.2-.51-4.91,1.52-6.35,39.11-27.89,114.77-85.61,181.98-158.89,84.52-92.14,126.31-176.58,124.2-250.97,0-.04,0-.07,0-.11-.13-23.25-5.18-45.63-15-66.53-.01-.03-.03-.06-.04-.09,0,0-.02-.04-.03-.07-.02-.04-.04-.07-.05-.11-26.15-55.37-82.59-91.15-143.79-91.15-87.64,0-158.93,71.29-158.93,158.92,0,2.74-2.22,4.97-4.97,4.97s-4.97-2.22-4.97-4.97c0-60.77-35.42-117.04-90.23-143.36-12.29-5.89-25.3-10.18-38.67-12.74-9.84-1.88-19.94-2.83-30.04-2.83-61.17,0-117.59,35.75-143.76,91.08l-.11.25s-.03.06-.04.09c-9.82,20.89-14.87,43.27-15.01,66.53,0,.04,0,.07,0,.11-1.61,57,22.92,120.54,72.92,188.87,37.04,50.63,87.13,102.83,148.86,155.17,34.31,29.1,64.8,51.84,84.33,65.79,1.84,1.31,2.56,3.71,1.75,5.82s-2.94,3.42-5.19,3.16c-25.77-2.88-62.85-11.33-104.42-23.8-92.46-27.72-171.22-67.8-234.09-119.12-71.17-58.09-121.37-130.29-149.19-214.59-21.54-65.26-28.1-136.69-18.99-206.57,9.17-70.36,34.06-137.54,71.97-194.26,45.74-68.44,108.28-123.28,168.77-176.31,83.65-73.35,170.14-149.19,209.86-260.73,42.83-120.3,35.27-262.79-19.28-363.02-1.07-1.97-.69-4.42.93-5.97,1.62-1.55,4.08-1.82,6-.66,54.99,33.19,101.93,78.24,139.53,133.89,32.33,47.86,58.78,105.17,78.63,170.36,36.38,119.48,45.11,242.86,52.12,342,6.45,91.15,11.55,163.11,37.08,161.82,11.42-.59,21.22-5.65,29.97-15.46,49.63-55.61,39.04-236.26,38.92-238.08-.14-2.19,1.18-4.21,3.23-4.97,2.05-.76,4.37-.08,5.69,1.66,182.1,240.97,243.23,454.51,181.68,634.68-21.92,64.17-59.66,124.05-112.17,177.97-41.91,43.03-93.27,82.38-152.65,116.96-98.67,57.45-187.43,82.62-192.32,83.99-.52.18-1.06.26-1.59.26ZM933.51,1777.93h0,0ZM835.48,235.96c23.4,49.01,36.97,106.48,39.43,167.43,2.59,64.19-7.03,129-27.82,187.4-18.23,51.19-47.49,99.31-89.47,147.09-37.29,42.45-80.96,80.74-123.2,117.78-60,52.61-122.04,107.01-167.05,174.36-74.84,111.97-94.69,262.25-51.81,392.19,64.9,196.64,240.67,286.53,376.7,327.31,31.26,9.37,59.87,16.43,82.87,20.51-18.62-13.78-42.52-32.26-68.62-54.39-62.33-52.84-112.95-105.62-150.45-156.88-51.32-70.13-76.49-135.73-74.84-194.96.16-24.66,5.51-48.4,15.92-70.57l.11-.26s.03-.07.05-.1c13.48-28.54,34.65-52.71,61.21-69.88,27.28-17.64,58.94-26.96,91.57-26.96,10.72,0,21.45,1.01,31.9,3.01,14.21,2.72,28.04,7.28,41.1,13.54,28.29,13.58,52.21,34.74,69.2,61.2,10,15.57,17.3,32.57,21.71,50.36,18.28-73.48,84.83-128.1,163.9-128.1,32.63,0,64.3,9.32,91.57,26.96,26.54,17.16,47.69,41.3,61.16,69.8.07.15.14.29.21.44,10.4,22.12,15.76,45.89,15.91,70.56,4.55,162.55-193.72,330.95-285.81,400.2,34.42-11.84,95.83-35.67,161.73-74.07,91.9-53.55,211.63-147.23,260.2-289.46,59.3-173.66,1.89-379.72-170.63-612.61.54,18.15.89,49.57-1.42,83.69-4.85,71.73-18.54,120.68-40.68,145.5-10.46,11.73-22.87,18.04-36.88,18.76-.43.02-.87.03-1.29.03-21.35,0-29.48-28.04-33.75-49.34-5.96-29.68-8.97-72.34-12.47-121.74-12.92-182.62-34.35-485.5-250.27-628.8ZM1221.84,1297.41s0,0,0,0c0,0,0,0,0,0Z"/>
</svg>