<svg height="512pt" viewBox="0 0 512 512" width="512pt" xmlns="http://www.w3.org/2000/svg"><path d="m199.738281 512h-162.238281c-20.679688 0-37.5-16.820312-37.5-37.5v-437c0-20.679688 16.820312-37.5 37.5-37.5h116.238281c4.144531 0 7.5 3.359375 7.5 7.5s-3.355469 7.5-7.5 7.5h-116.238281c-12.40625 0-22.5 10.09375-22.5 22.5v437c0 12.40625 10.09375 22.5 22.5 22.5h162.238281c4.144531 0 7.5 3.359375 7.5 7.5s-3.355469 7.5-7.5 7.5zm0 0"/><path d="m504.5 140.238281c-4.144531 0-7.5-3.355469-7.5-7.5v-95.238281c0-12.40625-10.09375-22.5-22.5-22.5h-286.238281c-4.144531 0-7.5-3.359375-7.5-7.5s3.355469-7.5 7.5-7.5h286.238281c20.679688 0 37.5 16.820312 37.5 37.5v95.238281c0 4.144531-3.355469 7.5-7.5 7.5zm0 0"/><path d="m474.5 512h-240.238281c-4.144531 0-7.5-3.359375-7.5-7.5s3.355469-7.5 7.5-7.5h240.238281c12.40625 0 22.5-10.09375 22.5-22.5v-307.238281c0-4.144531 3.355469-7.5 7.5-7.5s7.5 3.355469 7.5 7.5v307.238281c0 20.679688-16.820312 37.5-37.5 37.5zm0 0"/><path d="m150.285156 379.195312c-3.03125 0-6.054687-.835937-8.75-2.496093-4.972656-3.066407-7.941406-8.382813-7.941406-14.222657v-212.953124c0-5.839844 2.96875-11.15625 7.941406-14.222657 4.972656-3.0625 11.058594-3.324219 16.273438-.695312l211.410156 106.476562c5.667969 2.855469 9.1875 8.570313 9.1875 14.917969s-3.519531 12.0625-9.191406 14.917969l-211.40625 106.476562c-2.386719 1.203125-4.960938 1.800781-7.523438 1.800781zm.003906-231.386718c-.359374 0-.664062.125-.886718.265625-.371094.226562-.808594.664062-.808594 1.449219v212.953124c0 .785157.4375 1.222657.808594 1.449219.371094.230469.957031.425781 1.660156.070313l211.40625-106.476563c.625-.3125.9375-.824219.9375-1.519531s-.3125-1.207031-.933594-1.519531l-211.410156-106.476563c-.277344-.140625-.539062-.195312-.773438-.195312zm0 0"/></svg>